<?xml version="1.0" standalone="no"?>
<!DOCTYPE svg PUBLIC "-//W3C//DTD SVG 20010904//EN"
 "http://www.w3.org/TR/2001/REC-SVG-20010904/DTD/svg10.dtd">
<svg version="1.0" xmlns="http://www.w3.org/2000/svg"
 width="700.000000pt" height="700.000000pt" viewBox="0 0 700.000000 700.000000"
 preserveAspectRatio="xMidYMid meet">
<metadata>
Created by potrace 1.14, written by Peter Selinger 2001-2017
</metadata>
<g transform="translate(0.000000,700.000000) scale(0.100000,-0.100000)"
fill="#000000" stroke="none">
<path d="M934 6227 c-77 -16 -148 -91 -162 -170 -4 -23 -7 -1185 -6 -2582 1
-2813 -5 -2575 66 -2644 71 -70 -169 -64 2668 -64 l2565 -1 45 24 c50 26 82
58 107 110 16 33 17 214 16 2590 0 1405 -3 2564 -5 2575 -15 64 -66 125 -127
152 -33 14 -285 16 -2583 17 -1401 1 -2564 -2 -2584 -7z"/>
</g>
</svg>
